<?xml version="1.0" encoding="UTF-8" standalone="no"?>
<svg
		version="1.1"
		id="Layer_1"
		x="0px"
		y="0px"
		width="150"
		height="110"
		viewBox="0 0 148.5 108.86598"
		enable-background="new 0 0 396 288"
		xml:space="preserve"
		sodipodi:docname="Profile.svg"
		inkscape:version="1.3.2 (091e20e, 2023-11-25, custom)"
		xmlns:inkscape="http://www.inkscape.org/namespaces/inkscape"
		xmlns:sodipodi="http://sodipodi.sourceforge.net/DTD/sodipodi-0.dtd"
		xmlns="http://www.w3.org/2000/svg"
><sodipodi:namedview
   id="namedview1"
   pagecolor="#ffffff"
   bordercolor="#666666"
   borderopacity="1.0"
   inkscape:showpageshadow="2"
   inkscape:pageopacity="0.0"
   inkscape:pagecheckerboard="0"
   inkscape:deskcolor="#d1d1d1"
   inkscape:zoom="3.1146646"
   inkscape:cx="107.55572"
   inkscape:cy="131.63536"
   inkscape:window-width="3200"
   inkscape:window-height="1711"
   inkscape:window-x="-9"
   inkscape:window-y="-9"
   inkscape:window-maximized="1"
   inkscape:current-layer="Layer_1" /><defs
   id="defs67" />




























<g
   id="g1"
   transform="matrix(0.41782089,0,0,0.41782089,29.742465,0.00179138)"><polygon
     fill="#fbbd16"
     points="181.323,94.391 181.323,221.04 208.096,234.496 208.096,158.167 222.729,240.603 246.553,252.477 261.867,183.949 261.867,258.923 288.753,272.151 288.753,145.616 247.914,126.278 234.982,186.663 221.937,113.84 "
     id="polygon2"
     transform="translate(-181.323,-12.203)" /><polygon
     fill="#452e7f"
     points="292.611,272.796 292.496,145.583 335.152,123.418 335.152,215.238 394.142,184.709 394.369,219.31 "
     id="polygon4"
     transform="translate(-181.323,-12.203)" /><path
     fill="#962444"
     d="M 93.975,-0.045 63.812,26.624 c 0,0 58.851,30.25 66,33.825 7.15,3.574 17.325,10.449 6.325,20.625 -11,10.175 -23.1,8.8 -31.35,4.675 -8.25,-4.125 -69.3,-34.925 -69.3,-34.925 L 4.413,77.223 c 0,0 59.949,30.525 69.85,35.75 9.9,5.226 46.75,18.15 81.675,-9.075 34.925,-27.225 29.976,-37.125 29.976,-39.05 0,-1.925 -0.825,-12.1 -6.875,-18.425 -6.051,-6.325 -23.65,-15.4 -31.075,-19.25 -7.425,-3.85 -53.989,-27.218 -53.989,-27.218 z"
     id="path6" /><g
     id="g56"
     transform="translate(-181.323,-12.203)">
	<path
   fill="#6d6e71"
   d="m 393.104,167.064 c 0,4.471 -3.509,7.979 -8.076,7.979 -4.519,0 -8.123,-3.509 -8.123,-7.979 0,-4.375 3.604,-7.884 8.123,-7.884 4.568,0.001 8.076,3.509 8.076,7.884 z m -14.18,0 c 0,3.509 2.596,6.298 6.153,6.298 3.461,0 6.009,-2.789 6.009,-6.25 0,-3.51 -2.548,-6.346 -6.058,-6.346 -3.508,0.001 -6.104,2.837 -6.104,6.298 z m 4.855,4.134 h -1.827 v -7.883 c 0.722,-0.146 1.731,-0.241 3.029,-0.241 1.489,0 2.163,0.241 2.739,0.577 0.433,0.336 0.769,0.961 0.769,1.73 0,0.864 -0.672,1.538 -1.634,1.827 v 0.096 c 0.77,0.289 1.202,0.864 1.442,1.923 0.24,1.202 0.385,1.683 0.576,1.971 h -1.97 c -0.241,-0.288 -0.385,-1.01 -0.626,-1.923 -0.144,-0.865 -0.625,-1.25 -1.635,-1.25 h -0.864 v 3.173 z m 0.048,-4.47 h 0.865 c 1.01,0 1.827,-0.336 1.827,-1.153 0,-0.721 -0.528,-1.202 -1.683,-1.202 -0.481,0 -0.817,0.048 -1.01,0.097 v 2.258 z"
   id="path54" />
</g><text
     xml:space="preserve"
     style="font-style:normal;font-variant:normal;font-weight:bold;font-stretch:normal;font-size:81.1598px;font-family:sans-serif;-inkscape-font-specification:'sans-serif, Bold';font-variant-ligatures:normal;font-variant-caps:normal;font-variant-numeric:normal;font-variant-east-asian:normal;fill:#452e7f;fill-opacity:1;stroke:none;stroke-width:0.95258"
     x="-6.9347429"
     y="216.24274"
     id="text291"
     transform="scale(0.90517561,1.104758)"><tspan
       id="tspan289"
       style="font-style:normal;font-variant:normal;font-weight:bold;font-stretch:normal;font-size:81.1598px;font-family:sans-serif;-inkscape-font-specification:'sans-serif, Bold';font-variant-ligatures:normal;font-variant-caps:normal;font-variant-numeric:normal;font-variant-east-asian:normal;fill:#452e7f;fill-opacity:1;stroke:none;stroke-width:0.952589"
       x="-6.9347429"
       y="216.24274">P</tspan></text></g></svg>
